<svg width="38" height="38" viewBox="0 0 38 38" fill="none" xmlns="http://www.w3.org/2000/svg">
<path fill-rule="evenodd" clip-rule="evenodd" d="M36.5935 7.11628C37.0969 4.66248 34.6867 2.62332 32.3502 3.52609L3.70896 14.592C1.09965 15.6002 0.98339 19.2489 3.5232 20.421L9.76046 23.2999L12.7276 33.6848C12.8817 34.2242 13.3098 34.6419 13.8529 34.7827C14.3959 34.9233 14.9729 34.7662 15.3696 34.3694L19.9402 29.7988L26.3427 34.6007C28.2012 35.9946 30.878 34.9793 31.3448 32.7036L36.5935 7.11628ZM4.85023 17.5459L33.4915 6.47995L28.2427 32.0674L20.7417 26.4415C20.1113 25.9687 19.2293 26.0314 18.6721 26.5886L16.7145 28.5462L17.3027 25.3113L28.8279 13.7861C29.3889 13.2252 29.4481 12.3358 28.9666 11.7055C28.4851 11.0751 27.6116 10.8983 26.9228 11.2918L11.0061 20.387L4.85023 17.5459ZM12.9468 22.9252L13.9069 26.2857L14.2756 24.2583C14.3332 23.9414 14.486 23.6496 14.7138 23.4219L18.2286 19.9073L12.9468 22.9252Z" fill="white"/>
</svg>
